<svg xmlns="http://www.w3.org/2000/svg" width="280" height="280" viewBox="0 0 280 280">
  <rect width="280" height="280" fill="#e9f8ef"/>
  <rect x="16" y="16" width="248" height="248" rx="10" fill="#ffffff" stroke="#16a34a" stroke-width="2"/>
  <rect x="36" y="36" width="208" height="208" fill="#f3fff7"/>
  <g fill="#16a34a">
    <rect x="52" y="52" width="28" height="28"/>
    <rect x="90" y="52" width="14" height="14"/>
    <rect x="114" y="52" width="14" height="14"/>
    <rect x="138" y="52" width="28" height="28"/>
    <rect x="176" y="52" width="14" height="14"/>
    <rect x="200" y="52" width="28" height="28"/>
    <rect x="52" y="90" width="14" height="14"/>
    <rect x="76" y="90" width="28" height="28"/>
    <rect x="114" y="90" width="14" height="14"/>
    <rect x="138" y="90" width="14" height="14"/>
    <rect x="162" y="90" width="28" height="28"/>
    <rect x="200" y="90" width="14" height="14"/>
    <rect x="224" y="90" width="14" height="14"/>
    <rect x="52" y="128" width="28" height="28"/>
    <rect x="90" y="128" width="14" height="14"/>
    <rect x="114" y="128" width="28" height="28"/>
    <rect x="152" y="128" width="14" height="14"/>
    <rect x="176" y="128" width="14" height="14"/>
    <rect x="200" y="128" width="28" height="28"/>
    <rect x="52" y="166" width="14" height="14"/>
    <rect x="76" y="166" width="14" height="14"/>
    <rect x="100" y="166" width="28" height="28"/>
    <rect x="138" y="166" width="28" height="28"/>
    <rect x="176" y="166" width="14" height="14"/>
    <rect x="200" y="166" width="14" height="14"/>
    <rect x="224" y="166" width="14" height="14"/>
    <rect x="52" y="204" width="28" height="28"/>
    <rect x="90" y="204" width="14" height="14"/>
    <rect x="114" y="204" width="14" height="14"/>
    <rect x="138" y="204" width="28" height="28"/>
    <rect x="176" y="204" width="28" height="28"/>
    <rect x="214" y="204" width="14" height="14"/>
  </g>
  <text x="140" y="262" text-anchor="middle" font-size="18" fill="#16a34a" font-family="Arial, sans-serif">微信示意二维码</text>
</svg>
